<?xml version="1.0" encoding="UTF-8" standalone="no"?>
<!-- Creator: fig2dev Version 3.2.8b -->
<!-- CreationDate: 2022-10-12 12:31:16 -->
<!-- Magnification: 1.05 -->
<svg	xmlns="http://www.w3.org/2000/svg"
	xmlns:xlink="http://www.w3.org/1999/xlink"
	width="280pt" height="95pt"
	viewBox="75 847 4437 1508">
<g fill="none">
<!-- Line -->
<defs>
<clipPath id="cp0">
	<path clip-rule="evenodd" d="M 75,847 H 4512 V 2355 H 75 z
		M 4364,1770 4364,1830 4507,1807 4507,1793z"/>
</clipPath>
</defs>
<polyline points=" 180,1800 4500,1800" clip-path="url(#cp0)"
	stroke="#000000" stroke-width="8px"/>
<!-- Forward arrow to point 4500,1800 -->
<polygon points=" 4364,1830 4484,1800 4364,1770 4364,1830"
	stroke="#000000" stroke-width="8px" stroke-miterlimit="8" fill="#000000"/>
<!-- Text -->
<text xml:space="preserve" x="4185" y="1440" fill="#000000" font-family="Helvetica" font-style="normal" font-weight="normal" font-size="120" text-anchor="start">...</text>
<!-- Circle -->
<circle cx="2250" cy="900" r="45" fill="#ff0000"
	stroke="#ff0000" stroke-width="8px"/>
<!-- Circle -->
<circle cx="3150" cy="1800" r="45" fill="#ff0000"
	stroke="#ff0000" stroke-width="8px"/>
<!-- Circle -->
<circle cx="3600" cy="1800" r="45" fill="#ff0000"
	stroke="#ff0000" stroke-width="8px"/>
<!-- Circle -->
<circle cx="4050" cy="1800" r="45" fill="#ff0000"
	stroke="#ff0000" stroke-width="8px"/>
<!-- Circle -->
<circle cx="1350" cy="1125" r="45" fill="#ff0000"
	stroke="#ff0000" stroke-width="8px"/>
<!-- Circle -->
<circle cx="900" cy="1350" r="45" fill="#ff0000"
	stroke="#ff0000" stroke-width="8px"/>
<!-- Circle -->
<circle cx="450" cy="1800" r="45" fill="#ff0000"
	stroke="#ff0000" stroke-width="8px"/>
<!-- Circle -->
<circle cx="1800" cy="1350" r="45" fill="#ff0000"
	stroke="#ff0000" stroke-width="8px"/>
<!-- Line -->
<polyline points=" 2250,900 2250,1800"
	stroke="#ff0000" stroke-width="8px" stroke-linejoin="round" stroke-linecap="round"/>
<!-- Line -->
<polyline points=" 1800,1350 1800,1800"
	stroke="#ff0000" stroke-width="8px" stroke-linejoin="round" stroke-linecap="round"/>
<!-- Line -->
<polyline points=" 1350,1125 1350,1800"
	stroke="#ff0000" stroke-width="8px" stroke-linejoin="round" stroke-linecap="round"/>
<!-- Line -->
<polyline points=" 900,1350 900,1800"
	stroke="#ff0000" stroke-width="8px" stroke-linejoin="round" stroke-linecap="round"/>
<!-- Text -->
<text xml:space="preserve" x="90" y="1440" fill="#000000" font-family="Helvetica" font-style="normal" font-weight="normal" font-size="120" text-anchor="start">...</text>
<!-- Circle -->
<circle cx="2700" cy="1800" r="45" fill="#ff0000"
	stroke="#ff0000" stroke-width="8px"/>
<!-- Text -->
<text xml:space="preserve" x="2025" y="2340" fill="#000000" font-family="Times" font-style="italic" font-weight="normal" font-size="240" text-anchor="middle">T</text>
<!-- Line -->
<defs>
<clipPath id="cp1">
	<path clip-rule="evenodd" d="M 75,847 H 4512 V 2355 H 75 z
		M 2114,1950 2114,2010 2257,1987 2257,1973z
		M 1936,2010 1936,1950 1793,1973 1793,1987z"/>
</clipPath>
</defs>
<polyline points=" 1800,1980 2250,1980" clip-path="url(#cp1)"
	stroke="#000000" stroke-width="8px"/>
<!-- Forward arrow to point 2250,1980 -->
<polygon points=" 2114,2010 2234,1980 2114,1950 2114,2010"
	stroke="#000000" stroke-width="8px" stroke-miterlimit="8" fill="#000000"/>
<!-- Backward arrow to point 1800,1980 -->
<polygon points=" 1936,1950 1816,1980 1936,2010 1936,1950"
	stroke="#000000" stroke-width="8px" stroke-miterlimit="8" fill="#000000"/>
<!-- Line -->
<polyline points=" 450,1800 451,1799 453,1796 457,1791 463,1784 471,1774 481,1762
 494,1746 509,1729 525,1709 543,1689 563,1666 583,1643 605,1620 627,1595 651,1571
 676,1545 702,1519 730,1492 760,1465 792,1437 827,1408 863,1379 900,1350 940,1320
 978,1294 1012,1270 1041,1250 1064,1234 1083,1220 1097,1209 1107,1200 1115,1193
 1120,1187 1125,1181 1130,1176 1135,1171 1143,1166 1153,1161 1167,1155 1186,1149
 1209,1143 1238,1136 1272,1131 1310,1127 1350,1125 1390,1127 1428,1132 1462,1140
 1491,1150 1514,1163 1533,1177 1547,1191 1557,1207 1565,1223 1570,1240 1575,1256
 1580,1273 1585,1289 1593,1304 1603,1318 1617,1332 1636,1343 1659,1352 1688,1358
 1722,1360 1760,1357 1800,1350 1837,1338 1872,1323 1904,1304 1932,1282 1955,1258
 1974,1233 1989,1207 2001,1180 2009,1152 2016,1124 2021,1096 2025,1069 2029,1041
 2034,1015 2041,989 2049,964 2061,941 2076,921 2095,903 2118,890 2146,882 2178,880
 2213,886 2250,900 2280,918 2309,941 2337,968 2364,998 2390,1031 2414,1067 2437,1104
 2459,1144 2479,1184 2499,1226 2518,1269 2537,1314 2554,1358 2571,1403 2588,1448
 2603,1493 2618,1536 2632,1578 2644,1618 2656,1654 2666,1688 2675,1717 2683,1741
 2689,1761 2693,1776 2696,1787 2698,1794 2700,1798 2700,1800"
	stroke="#0000ff" stroke-width="15px" stroke-linejoin="bevel" stroke-dasharray="40 40"/>
</g>
</svg>
