<?xml version="1.0" encoding="UTF-8" standalone="no"?>
<!-- Creator: fig2dev Version 3.2.8b -->
<!-- CreationDate: 2022-10-12 15:01:52 -->
<!-- Magnification: 1.05 -->
<svg	xmlns="http://www.w3.org/2000/svg"
	xmlns:xlink="http://www.w3.org/1999/xlink"
	width="280pt" height="275pt"
	viewBox="75 186 4437 4358">
<g fill="none">
<!-- Text -->
<text xml:space="preserve" x="900" y="2070" fill="#000000" font-family="Times" font-style="normal" font-weight="normal" font-size="144" text-anchor="middle">0</text>
<!-- Line -->
<defs>
<clipPath id="cp0">
	<path clip-rule="evenodd" d="M 75,186 H 4512 V 4544 H 75 z
		M 870,586 930,586 907,443 893,443z"/>
</clipPath>
</defs>
<polyline points=" 900,450 900,1890" clip-path="url(#cp0)"
	stroke="#000000" stroke-width="8px"/>
<!-- Backward arrow to point 900,450 -->
<polygon points=" 930,586 900,466 870,586 930,586"
	stroke="#000000" stroke-width="8px" stroke-miterlimit="8" fill="#000000"/>
<!-- Line -->
<defs>
<clipPath id="cp1">
	<path clip-rule="evenodd" d="M 75,186 H 4512 V 4544 H 75 z
		M 4319,4020 4319,4080 4462,4057 4462,4043z
		M 870,586 930,586 907,443 893,443z"/>
</clipPath>
</defs>
<polyline points=" 135,4050 4455,4050" clip-path="url(#cp1)"
	stroke="#000000" stroke-width="8px"/>
<!-- Forward arrow to point 4455,4050 -->
<polygon points=" 4319,4080 4439,4050 4319,4020 4319,4080"
	stroke="#000000" stroke-width="8px" stroke-miterlimit="8" fill="#000000"/>
<!-- Line -->
<defs>
<clipPath id="cp2">
	<path clip-rule="evenodd" d="M 75,186 H 4512 V 4544 H 75 z
		M 4319,4020 4319,4080 4462,4057 4462,4043z
		M 870,2836 930,2836 907,2693 893,2693z"/>
</clipPath>
</defs>
<polyline points=" 900,2700 900,4140" clip-path="url(#cp2)"
	stroke="#000000" stroke-width="8px"/>
<!-- Backward arrow to point 900,2700 -->
<polygon points=" 930,2836 900,2716 870,2836 930,2836"
	stroke="#000000" stroke-width="8px" stroke-miterlimit="8" fill="#000000"/>
<!-- Line -->
<polyline points=" 1800,3960 1800,4140"
	stroke="#000000" stroke-width="8px"/>
<!-- Line -->
<polyline points=" 270,3825 1800,3825 2700,2925 3600,4500 4275,4500"
	stroke="#ff0000" stroke-width="45px" stroke-linejoin="round" stroke-linecap="round"/>
<!-- Line -->
<polyline points=" 270,1575 900,1575 1800,675 2700,2250 4320,2250"
	stroke="#ff0000" stroke-width="45px" stroke-linejoin="round" stroke-linecap="round"/>
<!-- Text -->
<text xml:space="preserve" x="90" y="3150" fill="#000000" font-family="Helvetica" font-style="normal" font-weight="normal" font-size="120" text-anchor="start">...</text>
<!-- Text -->
<text xml:space="preserve" x="90" y="1440" fill="#000000" font-family="Helvetica" font-style="normal" font-weight="normal" font-size="120" text-anchor="start">...</text>
<!-- Text -->
<text xml:space="preserve" x="4185" y="1440" fill="#000000" font-family="Helvetica" font-style="normal" font-weight="normal" font-size="120" text-anchor="start">...</text>
<!-- Text -->
<text xml:space="preserve" x="630" y="405" fill="#000000" font-family="Times" font-style="italic" font-weight="normal" font-size="240" text-anchor="middle">x(t)</text>
<!-- Text -->
<text xml:space="preserve" x="630" y="2655" fill="#000000" font-family="Times" font-style="italic" font-weight="normal" font-size="240" text-anchor="middle">y(t)</text>
<!-- Text -->
<text xml:space="preserve" x="1755" y="4365" fill="#000000" font-family="Times" font-style="italic" font-weight="normal" font-size="168" text-anchor="start">t</text>
<!-- Text -->
<text xml:space="preserve" x="1845" y="4410" fill="#000000" font-family="Times" font-style="italic" font-weight="normal" font-size="120" text-anchor="start">0</text>
<!-- Text -->
<text xml:space="preserve" x="4320" y="2070" fill="#000000" font-family="Times" font-style="italic" font-weight="normal" font-size="168" text-anchor="start">t</text>
<!-- Text -->
<text xml:space="preserve" x="4320" y="4320" fill="#000000" font-family="Times" font-style="italic" font-weight="normal" font-size="168" text-anchor="start">t</text>
<!-- Text -->
<text xml:space="preserve" x="900" y="4320" fill="#000000" font-family="Times" font-style="normal" font-weight="normal" font-size="144" text-anchor="middle">0</text>
<!-- Line -->
<defs>
<clipPath id="cp3">
	<path clip-rule="evenodd" d="M 75,186 H 4512 V 4544 H 75 z
		M 4364,1770 4364,1830 4507,1807 4507,1793z
		M 870,2836 930,2836 907,2693 893,2693z"/>
</clipPath>
</defs>
<polyline points=" 180,1800 4500,1800" clip-path="url(#cp3)"
	stroke="#000000" stroke-width="8px"/>
<!-- Forward arrow to point 4500,1800 -->
<polygon points=" 4364,1830 4484,1800 4364,1770 4364,1830"
	stroke="#000000" stroke-width="8px" stroke-miterlimit="8" fill="#000000"/>
</g>
</svg>
