<?xml version="1.0" encoding="utf-8"?>
<svg width="270pt" height="105pt" viewBox="1605 1740 4496 1740" xmlns="http://www.w3.org/2000/svg">
  <g fill="none">
    <polyline points=" 2355,2428 2355,2427 2356,2424 2358,2415 2361,2400 2365,2380&#10; 2371,2357 2378,2332 2385,2308 2392,2286 2401,2266 2410,2252 2421,2242 2432,2240&#10; 2445,2248 2455,2261 2464,2279 2471,2300 2477,2324 2482,2349 2485,2374 2487,2400&#10; 2489,2425 2490,2451 2491,2476 2493,2500 2495,2524 2498,2547 2503,2568 2509,2587&#10; 2516,2601 2525,2608 2535,2608 2544,2600 2552,2585 2559,2565 2565,2541 2570,2514&#10; 2573,2485 2576,2456 2578,2426 2579,2395 2580,2364 2581,2334 2582,2304 2584,2274&#10; 2587,2246 2590,2220 2595,2197 2601,2177 2608,2163 2616,2156 2625,2158 2632,2167&#10; 2639,2182 2646,2202 2651,2226 2656,2252 2660,2281 2663,2311 2665,2342 2667,2373&#10; 2668,2405 2669,2437 2670,2469 2671,2501 2672,2533 2673,2564 2675,2595 2677,2624&#10; 2680,2652 2684,2678 2689,2701 2694,2720 2701,2735 2708,2743 2715,2743 2722,2736&#10; 2728,2722 2734,2704 2740,2680 2744,2654 2748,2625 2751,2594 2754,2561 2756,2528&#10; 2757,2494 2758,2460 2759,2425 2760,2390 2761,2356 2762,2322 2763,2288 2764,2254&#10; 2766,2222 2769,2191 2772,2161 2776,2135 2780,2111 2786,2091 2792,2077 2798,2069&#10; 2805,2068 2812,2076 2818,2090 2824,2111 2830,2137 2834,2167 2838,2200 2841,2234&#10; 2844,2271 2846,2308 2847,2346 2848,2384 2849,2423 2850,2462 2851,2500 2852,2539&#10; 2853,2577 2854,2615 2856,2651 2859,2686 2862,2720 2866,2751 2870,2778 2876,2802&#10; 2882,2819 2888,2830 2895,2833 2901,2828 2908,2815 2913,2796 2918,2773 2923,2745&#10; 2927,2715 2930,2682 2932,2647 2935,2611 2936,2574 2937,2536 2938,2498 2939,2459&#10; 2940,2420 2941,2382 2942,2344 2943,2306 2944,2268 2945,2231 2948,2196 2950,2161&#10; 2953,2129 2957,2100 2962,2074 2967,2052 2972,2035 2979,2025 2985,2023 2991,2029&#10; 2998,2042 3003,2061 3008,2086 3013,2115 3017,2147 3020,2182 3022,2219 3025,2257&#10; 3026,2296 3027,2336 3028,2377 3029,2417 3030,2458 3031,2499 3032,2539 3033,2579&#10; 3034,2619 3035,2658 3038,2695 3040,2732 3043,2765 3047,2797 3052,2824 3057,2847&#10; 3062,2865 3069,2875 3075,2878 3081,2873 3087,2861 3092,2843 3097,2820 3101,2793&#10; 3105,2763 3108,2730 3111,2696 3113,2660 3115,2623 3117,2586 3118,2548 3119,2509&#10; 3119,2470 3120,2432 3121,2393 3121,2354 3122,2316 3123,2278 3125,2240 3127,2203&#10; 3129,2167 3132,2132 3135,2099 3139,2068 3143,2041 3148,2017 3153,1998 3159,1985&#10; 3165,1978 3171,1979 3178,1988 3183,2003 3188,2024 3193,2049 3197,2077 3200,2108&#10; 3202,2142 3205,2176 3206,2212 3207,2248 3208,2285 3209,2323 3210,2361 3211,2398&#10; 3212,2436 3213,2474 3214,2511 3215,2548 3218,2584 3220,2619 3223,2653 3227,2685&#10; 3232,2714 3237,2740 3242,2762 3249,2778 3255,2788 3262,2791 3269,2785 3276,2771&#10; 3281,2752 3286,2728 3290,2701 3293,2671 3295,2639 3297,2606 3298,2572 3299,2538&#10; 3300,2503 3301,2468 3302,2433 3303,2398 3305,2363 3307,2329 3310,2296 3314,2265&#10; 3319,2235 3324,2209 3331,2186 3338,2169 3345,2158 3354,2154 3362,2160 3369,2173&#10; 3375,2191 3380,2215 3383,2241 3386,2269 3388,2299 3389,2329 3390,2361 3391,2392&#10; 3392,2423 3394,2454 3397,2484 3400,2513 3405,2540 3411,2564 3418,2585 3426,2600&#10; 3435,2608 3445,2608 3454,2600 3461,2586 3467,2567 3472,2545 3475,2521 3477,2496&#10; 3479,2470 3480,2443 3481,2416 3483,2390 3485,2363 3488,2338 3493,2313 3499,2291&#10; 3506,2271 3515,2257 3525,2248 3536,2247 3546,2254 3554,2267 3560,2283 3564,2303&#10; 3567,2324 3569,2346 3570,2368 3571,2391 3573,2413 3576,2435 3580,2457 3586,2477&#10; 3594,2495 3604,2509 3615,2518 3628,2520 3638,2515 3647,2505 3652,2492 3656,2476&#10; 3658,2460 3660,2443 3662,2426 3664,2408 3668,2391 3673,2375 3682,2360 3692,2347&#10; 3705,2338 3722,2334 3735,2338 3743,2346 3748,2356 3750,2368 3752,2380 3757,2393&#10; 3765,2405 3778,2418 3795,2428 3816,2436 3830,2437 3837,2434 3840,2428 3843,2422&#10; 3850,2419 3864,2420 3885,2428 3899,2437 3911,2447 3920,2459 3925,2471 3928,2483&#10; 3930,2496 3932,2507 3935,2518 3940,2526 3949,2530 3961,2528 3975,2518 3986,2504&#10; 3996,2487 4004,2467 4010,2446 4014,2424 4017,2403 4019,2382 4020,2361 4021,2340&#10; 4023,2319 4026,2300 4030,2282 4036,2266 4044,2254 4054,2247 4065,2248 4075,2257&#10; 4084,2272 4091,2292 4097,2316 4102,2342 4105,2370 4107,2399 4109,2428 4110,2458&#10; 4111,2487 4113,2516 4115,2543 4118,2567 4123,2589 4129,2606 4136,2616 4145,2617&#10; 4155,2608 4162,2594 4169,2573 4176,2549 4181,2521 4186,2491 4190,2459 4193,2426&#10; 4195,2392 4197,2358 4198,2324 4199,2290 4200,2255 4201,2222 4202,2188 4203,2155&#10; 4205,2123 4207,2092 4210,2063 4214,2037 4219,2013 4224,1994 4231,1981 4238,1975&#10; 4245,1978 4251,1988 4258,2004 4263,2026 4268,2051 4273,2080 4277,2112 4280,2145&#10; 4282,2180 4285,2215 4286,2251 4287,2288 4288,2324 4289,2361 4290,2398 4291,2435&#10; 4292,2471 4293,2508 4294,2544 4295,2579 4298,2613 4300,2647 4303,2678 4307,2707&#10; 4312,2733 4317,2756 4322,2773 4329,2784 4335,2788 4341,2784 4348,2773 4353,2755&#10; 4358,2732 4363,2705 4367,2675 4370,2642 4372,2607 4375,2571 4376,2534 4377,2496&#10; 4378,2457 4379,2418 4380,2379 4381,2340 4382,2301 4383,2263 4384,2225 4385,2188&#10; 4388,2152 4390,2117 4393,2085 4397,2055 4402,2029 4407,2007 4412,1991 4419,1980&#10; 4425,1978 4431,1984 4438,1997 4443,2016 4448,2041 4453,2070 4457,2102 4460,2136&#10; 4462,2173 4465,2211 4466,2250 4467,2289 4468,2329 4469,2369 4470,2409 4471,2449&#10; 4472,2490 4473,2529 4474,2569 4475,2607 4478,2645 4480,2681 4483,2715 4487,2747&#10; 4492,2775 4497,2799 4502,2817 4509,2829 4515,2833 4521,2829 4528,2817 4533,2798&#10; 4538,2774 4543,2746 4547,2714 4550,2679 4552,2642 4555,2604 4556,2565 4557,2525&#10; 4558,2484 4559,2443 4560,2402 4561,2361 4562,2320 4563,2279 4564,2239 4565,2200&#10; 4568,2162 4570,2125 4573,2091 4577,2060 4582,2032 4587,2009 4592,1991 4599,1981&#10; 4605,1978 4611,1983 4617,1995 4622,2013 4627,2036 4631,2063 4635,2093 4638,2125&#10; 4641,2159 4643,2195 4645,2231 4647,2268 4648,2306 4649,2344 4649,2382 4650,2421&#10; 4651,2459 4651,2497 4652,2535 4653,2573 4655,2611 4657,2648 4659,2684 4662,2719&#10; 4665,2752 4669,2783 4673,2811 4678,2835 4683,2855 4689,2870 4695,2878 4702,2878&#10; 4708,2870 4714,2855 4720,2833 4724,2806 4728,2776 4731,2743 4734,2707 4736,2670&#10; 4737,2632 4738,2593 4739,2554 4740,2514 4741,2475 4742,2435 4743,2395 4744,2357&#10; 4746,2318 4749,2281 4752,2246 4756,2213 4760,2183 4766,2157 4772,2135 4778,2121&#10; 4785,2113 4792,2114 4798,2122 4804,2136 4810,2156 4814,2179 4818,2206 4821,2235&#10; 4824,2266 4826,2298 4827,2330 4828,2364 4829,2398 4830,2432 4831,2466 4832,2500&#10; 4833,2534 4834,2568 4836,2601 4839,2633 4842,2664 4846,2694 4850,2721 4856,2745&#10; 4862,2765 4868,2779 4875,2788 4883,2789 4891,2782 4897,2768 4903,2749 4908,2725&#10; 4912,2699 4914,2671 4916,2641 4918,2611 4919,2579 4920,2548 4921,2516 4922,2485&#10; 4924,2453 4926,2421 4928,2390 4932,2360 4937,2331 4943,2304 4949,2281 4957,2262&#10; 4965,2248 4975,2241 4984,2242 4991,2252 4997,2267 5002,2287 5005,2310 5007,2334&#10; 5009,2360 5010,2387 5011,2414 5013,2440 5015,2466 5018,2491 5023,2513 5029,2533&#10; 5036,2549 5045,2559 5055,2563 5065,2559 5074,2549 5081,2535 5087,2517 5092,2497&#10; 5095,2476 5097,2454 5099,2432 5100,2409 5101,2387 5103,2364 5105,2342 5108,2320&#10; 5113,2300 5119,2281 5126,2265 5135,2254 5145,2248 5156,2249 5166,2258 5174,2272&#10; 5180,2289 5184,2308 5187,2329 5189,2350 5190,2372 5191,2394 5193,2415 5196,2437&#10; 5200,2458 5206,2478 5214,2495 5224,2509 5235,2518 5248,2520 5258,2515 5267,2504&#10; 5272,2490 5276,2474 5278,2457 5280,2439 5282,2421 5284,2403 5288,2386 5293,2369&#10; 5302,2355 5312,2344 5325,2338 5340,2338 5352,2345 5361,2356 5367,2369 5371,2383&#10; 5374,2398 5377,2413 5380,2428 5386,2442 5394,2456 5404,2466 5415,2473 5427,2473&#10; 5435,2468 5438,2458 5439,2447 5437,2435 5436,2423 5437,2411 5440,2400 5448,2390&#10; 5460,2383 5473,2381 5481,2383 5483,2387 5480,2392 5475,2398 5471,2404 5472,2410&#10; 5483,2417 5508,2423 5550,2428 5576,2430 5604,2432 5632,2433 5660,2433 5688,2434&#10; 5716,2434 5743,2434 5771,2433 5798,2433 5824,2432 5850,2432 5874,2431 5895,2430&#10; 5914,2429 5929,2429 5941,2429 5949,2428 5953,2428 5955,2428" stroke="#ff0000" stroke-width="45px" stroke-linejoin="bevel" stroke-linecap="round"/>
    <defs>
      <clipPath id="cp0">
        <path clip-rule="evenodd" d="M 1605,1740 H 6101 V 3480 H 1605 z M 5804,3120 5804,3180 5947,3157 5947,3143z M 2310,1936 2370,1936 2347,1793 2333,1793z"/>
      </clipPath>
    </defs>
    <polyline points=" 2340,1800 2340,3150 5940,3150" clip-path="url(#cp0)" stroke="#000000" stroke-width="8px"/>
    <polygon points=" 5804,3180 5924,3150 5804,3120 5804,3180" stroke="#000000" stroke-width="8px" stroke-miterlimit="8" fill="#000000"/>
    <polygon points=" 2370,1936 2340,1816 2310,1936 2370,1936" stroke="#000000" stroke-width="8px" stroke-miterlimit="8" fill="#000000"/>
    <text x="5625" y="3420" fill="#000000" font-family="Helvetica" font-style="normal" font-weight="normal" font-size="120" text-anchor="start" style="white-space: pre;">Tempo</text>
    <text x="1620" y="1890" fill="#000000" font-family="Helvetica" font-style="normal" font-weight="normal" font-size="120" text-anchor="start" style="white-space: pre;">Pressão</text>
  </g>
</svg>